{
  "asset": {
    "version": "2.0",
    "generator": "ForgeaX LOD sphere demo glTF fixture"
  },
  "extensionsUsed": [
    "MSFT_lod"
  ],
  "scene": 0,
  "scenes": [
    {
      "name": "LodSphereScene",
      "nodes": [
        0,
        1,
        2,
        3
      ]
    }
  ],
  "nodes": [
    {
      "name": "LodSphereRoot",
      "mesh": 0,
      "extensions": {
        "MSFT_lod": {
          "ids": [
            1,
            2
          ]
        }
      },
      "extras": {
        "MSFT_screencoverage": [
          0.5,
          0.2,
          0.01
        ]
      }
    },
    {
      "name": "LodSphere1",
      "mesh": 1
    },
    {
      "name": "LodSphere2",
      "mesh": 2
    },
    {
      "name": "MainCamera",
      "camera": 0,
      "translation": [
        0,
        0,
        12
      ]
    }
  ],
  "cameras": [
    {
      "name": "MainCamera",
      "type": "perspective",
      "perspective": {
        "yfov": 0.7853981633974483,
        "aspectRatio": 1.3333333333333333,
        "znear": 0.1,
        "zfar": 100
      }
    }
  ],
  "meshes": [
    {
      "name": "LodSphere0",
      "primitives": [
        {
          "attributes": {
            "POSITION": 0
          },
          "indices": 3,
          "material": 0
        }
      ]
    },
    {
      "name": "LodSphere1",
      "primitives": [
        {
          "attributes": {
            "POSITION": 1
          },
          "indices": 4,
          "material": 0
        }
      ]
    },
    {
      "name": "LodSphere2",
      "primitives": [
        {
          "attributes": {
            "POSITION": 2
          },
          "indices": 5,
          "material": 0
        }
      ]
    }
  ],
  "materials": [
    {
      "name": "LodSphereMaterial",
      "pbrMetallicRoughness": {
        "baseColorFactor": [
          0.2,
          0.6,
          0.95,
          1
        ]
      }
    }
  ],
  "accessors": [
    {
      "bufferView": 0,
      "componentType": 5126,
      "count": 221,
      "type": "VEC3",
      "min": [
        -1,
        -1,
        -1
      ],
      "max": [
        1,
        1,
        1
      ]
    },
    {
      "bufferView": 1,
      "componentType": 5126,
      "count": 63,
      "type": "VEC3",
      "min": [
        -1,
        -1,
        -1
      ],
      "max": [
        1,
        1,
        1
      ]
    },
    {
      "bufferView": 2,
      "componentType": 5126,
      "count": 20,
      "type": "VEC3",
      "min": [
        -1,
        -1,
        -1
      ],
      "max": [
        1,
        1,
        1
      ]
    },
    {
      "bufferView": 3,
      "componentType": 5123,
      "count": 1056,
      "type": "SCALAR"
    },
    {
      "bufferView": 4,
      "componentType": 5123,
      "count": 240,
      "type": "SCALAR"
    },
    {
      "bufferView": 5,
      "componentType": 5123,
      "count": 48,
      "type": "SCALAR"
    }
  ],
  "bufferViews": [
    {
      "buffer": 0,
      "byteOffset": 0,
      "byteLength": 2652
    },
    {
      "buffer": 0,
      "byteOffset": 2652,
      "byteLength": 756
    },
    {
      "buffer": 0,
      "byteOffset": 3408,
      "byteLength": 240
    },
    {
      "buffer": 0,
      "byteOffset": 3648,
      "byteLength": 2112
    },
    {
      "buffer": 0,
      "byteOffset": 5760,
      "byteLength": 480
    },
    {
      "buffer": 0,
      "byteOffset": 6240,
      "byteLength": 96
    }
  ],
  "buffers": [
    {
      "byteLength": 6336,
      "uri": "data:application/octet-stream;base64,"
    }
  ]
}
